<?xml version="1.0" standalone="no"?><!DOCTYPE svg PUBLIC "-//W3C//DTD SVG 1.1//EN" "http://www.w3.org/Graphics/SVG/1.1/DTD/svg11.dtd"><svg xmlns="http://www.w3.org/2000/svg" xmlns:xlink="http://www.w3.org/1999/xlink"><symbol viewBox="0 0 70 70" id="1-icon" xmlns="http://www.w3.org/2000/svg"><path d="M13 9c0 1.4-.7 2-2.2 2-4.2 0-5.2 1.4-4.4 6.1.9 5.9 3 8.7 7.7 10.8 2.2 1 5.2 3.6 7 6 1.7 2.4 4.4 5 6 5.9 2.9 1.7 3.9 5.3 2.1 7.7C28 49.3 21 53 18.9 53c-1.6 0-1.9.7-1.9 5v5h34v-5c0-4.6-.2-5-2.4-5-1.3 0-2.9-.7-3.6-1.5-.7-.8-1.8-1.5-2.6-1.5-2.1 0-4.4-3-4.4-5.9 0-1.9.8-3.2 2.9-4.4 1.6-.9 4.2-3.7 5.7-6.1 1.9-3.1 3.7-4.6 5.7-5 4.5-.9 8.4-5.6 9.2-11 .8-5.2 0-6.6-4.2-6.6-1.6 0-2.3-.6-2.3-2 0-1.9-.7-2-21-2s-21 .1-21 2zm40.4 1.7c-4.1 19-11 29.3-19.6 29.3-8.1 0-14.1-7.7-17.7-22.8-1-4.2-1.7-8-1.4-8.5.2-.4 9.2-.7 19.9-.7H54l-.6 2.7zm-38.9 7c2.5 8.5 2.6 9.3 1.1 9.3-3.3 0-6.8-4.4-7.3-9.4-.6-4.7-.6-4.8 2.2-4.4 2.3.2 3 1 4 4.5zm45.2 0c-.5 5.1-4 9.3-7.6 9.3-1.8 0-1.7-.3.3-7 2-6.5 2.3-7 5-7 2.8 0 2.9.1 2.3 4.7zm-23.1 28c.6 2.7 1.8 4.2 3.9 5.3l3 1.5-4.7.3c-2.7.2-6.9.2-9.5 0-4.6-.3-4.7-.4-2.1-1.5 3-1.3 4.8-4.1 4.8-7.2 0-3.8 3.5-2.5 4.6 1.6zM49 58.5v3.6l-15.2-.3-15.1-.3-.1-3.3-.1-3.2H49v3.5z"/><path d="M33 17c-.6 1.1-2 2-3 2-2.4 0-2.6 1.3-.5 3 .9.7 1.3 2.1.9 3.4-.5 2.1-.2 2.2 4.4 2.2 4.4 0 4.8-.2 4.4-2.1-.2-1.2.4-2.7 1.2-3.4 2.3-1.9 2-3.1-.8-3.1-1.6 0-2.7-.7-3.1-2-.3-1.1-1-2-1.5-2s-1.4.9-2 2zm5.8 3.6c.1.1-.3 1.2-1 2.5-1.4 2.5-6.3 3.7-5.4 1.3.3-.8.1-1.6-.4-1.9-1.5-.9-1.2-2.5.5-2.5.8 0 1.5-.5 1.5-1 0-.6.9-.5 2.3.2 1.2.7 2.3 1.3 2.5 1.4z"/></symbol><symbol viewBox="0 0 70 70" id="2-icon" xmlns="http://www.w3.org/2000/svg"><path d="M26 13v6h-3.2c-8 0-14.1 6-14.2 14-.1 4.8-.2 5-2.8 5-1.6 0-2.8.4-2.8 1 0 .5 1.5 1 3.4 1 2.5 0 3.6.5 4.1 1.9.3 1 2.7 3.8 5.4 6.2C20.6 52.4 33.4 61 35.1 61c.4 0 4.6-2.4 9.1-5.3C52 50.6 60 43.2 60 41c0-.6 1.6-1 3.5-1s3.5-.5 3.5-1c0-.6-1.2-1-2.8-1-2.6 0-2.7-.2-2.4-4.3.7-8.2-7.1-15.3-15.5-14.3L42 20v-3.6c0-2.1-.4-3.3-1-2.9-.5.3-1 1.9-1 3.4s-1 4.1-2.3 5.8l-2.3 3.1-2.6-2.3c-2-1.7-2.8-3.8-3.8-9.4-.6-3.9-1.6-7.1-2.1-7.1s-.9 2.7-.9 6zm1.7 6.2c-.3.8-.6.5-.6-.6-.1-1.1.2-1.7.5-1.3.3.3.4 1.2.1 1.9zm-2.9 10l-.3 8.3-7.2.3-7.3.3V34c0-7.7 4.7-12.9 11.8-13h3.3l-.3 8.2zm32.4-4.3C59.5 27.4 60 29 60 33v5h-5.9c-5.2 0-6.2.3-7.9 2.5-1.1 1.4-2.3 2.5-2.6 2.5-.9 0-.7-20.5.2-21.4.4-.4 2.9-.6 5.6-.3 4 .3 5.5 1.1 7.8 3.6zM31 37.5C32.3 46 33.7 53 34.1 53c.9 0 4.1-15.2 6-28.5.3-1.9 1.7 11.1 1.8 16.7.1 3.2.4 5.8.9 5.8.4 0 1.8-1.6 3.1-3.5 2.2-3.3 2.7-3.5 7.8-3.5 4.9 0 5.3.2 4.4 1.8-1.5 2.8-8.8 8.9-16.3 13.7l-6.6 4.2-8.9-5.7C18.1 48.7 12 43.1 12 40.9c0-.5 3.1-.9 6.9-.9h6.9l.8-9c.3-5 1-9 1.4-9 .4 0 1.7 7 3 15.5zm5.4-10.4c1.2-1 1.6-1 1.6-.1 0 2-3.2 19.1-3.6 18.8-.4-.5-3.4-18.1-3.4-20.3 0-1.8.2-1.8 1.9.5 1.6 2 2.1 2.2 3.5 1.1z"/></symbol><symbol viewBox="0 0 70 70" id="3-icon" xmlns="http://www.w3.org/2000/svg"><path d="M9.2 16C5.3 19.8 2 23.8 2 24.8c0 1 1.9 3.6 4.3 5.8 7.5 7.2 28.1 24 31.6 25.8 5.3 2.8 13.2 3.1 22.2 1.1l7.9-1.8v-3.4c0-4.5-3.4-7.8-9-8.7-6.7-1.1-9.7-3.4-15.7-12.4-6.6-9.9-8.1-10.9-11.6-8.1l-2.6 2-3.1-2.8c-1.7-1.5-3.8-5-4.8-7.8-1-2.7-2.5-5.1-3.3-5.3-.8-.1-4.7 2.9-8.7 6.8zm9.8-2.9c0 3.2 1.7 5.9 7.5 11.9 3 3 7.3 7.6 9.7 10.1 3.5 3.8 5.7 5 12.3 7.2 4.4 1.4 9.7 2.9 11.8 3.2 2 .4 3.7 1.2 3.7 1.7 0 .7-3.1.9-8.9.6-10.3-.6-15.3-2.6-22.5-9-7.7-6.7-18.4-23.2-17.2-26.4.8-2.2 3.6-1.7 3.6.7zm-2.5 7.1C23 32.6 32.3 42.4 41.7 46.7c4.9 2.3 7.2 2.7 15.1 2.7 11.1 0 10.8 1.4-.5 2.3-11.3.8-15.4-.8-28.7-11.5l-10.9-8.7L15 25c-.9-3.6-2-7.3-2.4-8.3-.5-1-.4-1.7.2-1.7.5 0 2.2 2.4 3.7 5.2zm-3.9 1.4c.8 2 1.4 4.5 1.2 5.6-.3 1.7-.7 1.5-4.2-1.7-3.8-3.4-3.8-3.6-2.1-5.5 2.5-2.8 3.4-2.5 5.1 1.6zM35.3 48c7.5 5.1 14.6 6.6 23.4 5 4.5-.7 6.9-.8 7.6-.1 1.7 1.7-4.1 3.3-14.3 3.8-11.9.6-11.9.6-31.5-15.9C4 27 2.5 25.6 3.5 24.1c.3-.6 6.3 3.7 13.3 9.5 7 5.8 15.3 12.3 18.5 14.4zm1.2-24.1c.6 1.1-3.3 2.6-4.3 1.6-.4-.3 0-1 .8-1.5 1.9-1.2 2.7-1.2 3.5-.1zm1.8 3.8c-1.8.7-1.6 2.3.2 2.3.9 0 1.2.6.9 1.5-.4 1 0 1.5 1.2 1.5 1.6 0 1.7.2.4 1-1.2.8-1.1 1 .6 1 1.2 0 2.9 1.2 3.9 2.6 1.6 2.6 1.6 2.6-.7 1.9-3.3-1-8.6-5.4-11-9.3l-2-3.2 3.9.1c2.1 0 3.2.3 2.6.6z"/></symbol><symbol viewBox="0 0 314.652 314.652" id="facebook" xmlns="http://www.w3.org/2000/svg"><path d="M157.326 0C70.576 0 0 70.576 0 157.326s70.576 157.326 157.326 157.326 157.326-70.576 157.326-157.326S244.076 0 157.326 0zm0 296.652C80.501 296.652 18 234.15 18 157.326S80.501 18 157.326 18s139.326 62.502 139.326 139.326-62.501 139.326-139.326 139.326z"/><path d="M193.764 71.952H172.43c-17.461 0-31.667 14.206-31.667 31.667v24h-19.875c-4.971 0-9 4.029-9 9s4.029 9 9 9h19.875v83.333c0 4.971 4.029 9 9 9s9-4.029 9-9v-83.333h30.75c4.971 0 9-4.029 9-9s-4.029-9-9-9h-30.75v-24c0-7.536 6.131-13.667 13.667-13.667h21.333c4.971 0 9-4.029 9-9s-4.029-9-8.999-9z"/></symbol><symbol viewBox="0 0 512 512" id="instagram" xmlns="http://www.w3.org/2000/svg"><path d="M437.022 74.984C388.67 26.63 324.381 0 256 0 187.624 0 123.338 26.63 74.984 74.984S0 187.624 0 256c0 68.388 26.63 132.678 74.984 181.028C123.335 485.375 187.621 512 256 512c68.385 0 132.673-26.625 181.021-74.972C485.372 388.679 512 324.389 512 256c0-68.378-26.628-132.664-74.978-181.016zm-11.314 350.73C380.381 471.039 320.111 496 256 496c-64.106 0-124.374-24.961-169.703-70.286C40.965 380.386 16 320.113 16 256c0-64.102 24.965-124.37 70.297-169.702C131.63 40.965 191.898 16 256 16c64.108 0 124.378 24.965 169.708 70.297C471.037 131.628 496 191.896 496 256c0 64.115-24.963 124.387-70.292 169.714z"/><path d="M430.038 114.969a7.999 7.999 0 00-11.253-1.172 7.999 7.999 0 00-1.172 11.252C447.526 161.919 464 208.425 464 256c0 55.567-21.635 107.803-60.919 147.085C363.797 442.367 311.563 464 256 464c-51.26 0-100.505-18.807-138.663-52.956a8 8 0 00-10.67 11.922C147.763 459.745 200.797 480 256 480c59.837 0 116.089-23.297 158.394-65.601C456.701 372.094 480 315.84 480 256c0-51.234-17.744-101.319-49.962-141.031zM48 256c0-114.691 93.309-208 208-208 51.26 0 100.504 18.808 138.662 52.959a8 8 0 0011.296-.625 8 8 0 00-.625-11.296C364.237 52.256 311.203 32 256 32c-59.829 0-116.079 23.301-158.389 65.611C55.301 139.92 32 196.171 32 256c0 51.24 17.744 101.328 49.963 141.038a7.983 7.983 0 006.217 2.96 8 8 0 006.208-13.041C64.474 350.088 48 303.58 48 256z"/><path d="M168 127.654c-22.056 0-40 17.944-40 40v176c0 22.056 17.944 40 40 40h176c22.056 0 40-17.944 40-40v-176c0-22.056-17.944-40-40-40H168zm176 240H168c-13.234 0-24-10.766-24-24v-120h47.528a71.537 71.537 0 00-7.528 32c0 39.701 32.299 72 72 72s72-32.299 72-72a71.537 71.537 0 00-7.528-32H368v120c0 13.234-10.766 24-24 24zm-32-112c0 30.878-25.122 56-56 56s-56-25.122-56-56 25.122-56 56-56 56 25.122 56 56zm56-88v40h-58.392c-13.192-14.718-32.333-24-53.608-24s-40.416 9.282-53.608 24H144v-40c0-10.429 6.689-19.322 16-22.624v46.624a8 8 0 0016 0v-48h8v48a8 8 0 0016 0v-48h144c13.234 0 24 10.766 24 24z"/><path d="M256 215.654a8 8 0 000 16c13.234 0 24 10.766 24 24a8 8 0 0016 0c0-22.056-17.944-40-40-40zM312 159.654v32a8 8 0 008 8h32a8 8 0 008-8v-32a8 8 0 00-8-8h-32a8 8 0 00-8 8zm16 8h16v16h-16v-16z"/></symbol><symbol viewBox="0 0 31 50" id="left" xmlns="http://www.w3.org/2000/svg"><path d="M12 12.5L-.5 25 12 37.5C18.9 44.4 25 50 25.6 50c1.3 0 5.4-4.2 5.4-5.5 0-.5-4.2-5.1-9.2-10.2L12.5 25l9.3-9.3C26.8 10.6 31 6 31 5.4 31 4.1 26.7 0 25.4 0c-.5 0-6.5 5.6-13.4 12.5z"/></symbol><symbol viewBox="0 0 15 15" id="message" xmlns="http://www.w3.org/2000/svg"><path d="M3.5 11.493H4v-.5h-.5v.5zm0 2.998H3a.5.5 0 00.8.4l-.3-.4zm4-2.998v-.5h-.167l-.133.1.3.4zm-3-7.496H4v1h.5v-1zm6 1h.5v-1h-.5v1zm-6 1.998H4v1h.5v-1zm4 1H9v-1h-.5v1zM3 11.493v2.998h1v-2.998H3zm.8 3.398l4-2.998-.6-.8-4 2.998.6.8zm3.7-2.898h6v-1h-6v1zm6 0c.829 0 1.5-.67 1.5-1.5h-1c0 .277-.223.5-.5.5v1zm1.5-1.5V1.5h-1v8.994h1zM15 1.5C15 .67 14.329 0 13.5 0v1c.277 0 .5.223.5.5h1zM13.5 0h-12v1h12V0zm-12 0C.671 0 0 .67 0 1.5h1c0-.277.223-.5.5-.5V0zM0 1.5v8.993h1V1.5H0zm0 8.993c0 .83.671 1.5 1.5 1.5v-1a.499.499 0 01-.5-.5H0zm1.5 1.5h2v-1h-2v1zm3-6.996h6v-1h-6v1zm0 2.998h4v-1h-4v1z"/></symbol><symbol viewBox="0 0 496 496" id="p" xmlns="http://www.w3.org/2000/svg"><path d="M281.08 176H208v72h73.08c20.528 0 37.184-15.456 37.184-35.992 0-20.552-16.656-36.008-37.184-36.008z"/><path d="M248 0C111.04 0 0 111.032 0 248s111.04 248 248 248c136.952 0 248-111.032 248-248S384.952 0 248 0zm33.08 296H208v80h-48V128h121.08c47.928 0 86.8 36.064 86.8 84.008-.008 47.928-38.872 83.992-86.8 83.992z"/><path d="M338.336 17.048c30.888 40.896 48.936 90.24 48.936 143.376 0 141.24-127.504 255.752-284.816 255.752-13.2 0-26.184-.872-38.92-2.44C108.944 464.232 174.752 496 248 496c136.952 0 248-111.032 248-248 0-105.08-65.384-194.832-157.664-230.952z"/><path d="M316.832 220.008c.832-3.128 1.432-4.88 1.432-8.248 0-20.552-16.656-35.768-37.184-35.768H208v16h73.08c17.152.008 31.472 12.2 35.752 28.016zM281.08 296H208v24h73.08c47.928 0 86.8-40.376 86.8-88.304 0-3.288-.224-8.072-.568-11.248C362.48 263.816 325.736 296 281.08 296z"/><path d="M248 19.376c133.712 0 242.664 105.832 247.76 238.312.104-3.224.24-6.432.24-9.688C496 111.032 384.952 0 248 0 111.04 0 0 111.032 0 248c0 3.256.128 6.464.24 9.688C5.336 125.208 114.28 19.376 248 19.376zM160 376h48v16h-48z"/></symbol><symbol viewBox="0 0 512 512" id="packs-boxes" xmlns="http://www.w3.org/2000/svg"><path d="M115.613 426.667c0 22.768 18.522 41.29 41.29 41.29s41.29-18.522 41.29-41.29-18.522-41.29-41.29-41.29c-22.768-.001-41.29 18.522-41.29 41.29zm66.064 0c0 13.66-11.113 24.774-24.774 24.774-13.661 0-24.774-11.114-24.774-24.774s11.113-24.774 24.774-24.774c13.661-.001 24.774 11.113 24.774 24.774z"/><path d="M454.193 209.204H330.322V52.301a8.256 8.256 0 00-8.258-8.258h-154.15a8.257 8.257 0 00-8.258 8.258v13.095L96.678 2.418a8.259 8.259 0 00-11.678 0L51.967 35.45a8.258 8.258 0 000 11.679l63.645 63.645v205.784c0 4.562 3.697 8.258 8.258 8.258s8.258-3.696 8.258-8.258V107.355c0-2.19-.87-4.29-2.419-5.84L69.484 41.29l21.354-21.354 68.817 68.817v252.649c-.916-.03-1.83-.069-2.753-.069-47.053 0-85.333 38.28-85.333 85.333S109.85 512 156.903 512c36.393 0 67.519-22.908 79.764-55.054H410.15a8.256 8.256 0 008.258-8.258v-44.043a8.256 8.256 0 00-8.258-8.258H236.667c-10.014-26.291-32.664-46.382-60.495-52.833V225.72h104.602v68.817a8.256 8.256 0 008.258 8.258h44.043a8.256 8.256 0 008.258-8.258V225.72h104.602v178.925c0 4.562 3.696 8.258 8.258 8.258s8.258-3.696 8.258-8.258V217.462a8.258 8.258 0 00-8.258-8.258zM241.11 412.903h160.782v27.527H241.11a85.564 85.564 0 001.125-13.763c0-4.687-.395-9.28-1.125-13.764zm-15.39 13.764c0 37.946-30.872 68.817-68.817 68.817-37.945 0-68.817-30.872-68.817-68.817s30.872-68.817 68.817-68.817c37.945-.001 68.817 30.87 68.817 68.817zm5.506-366.108h27.527v60.559h-27.527V60.559zm-55.054 148.645V60.559h38.538v68.817a8.257 8.257 0 008.258 8.258h44.043a8.256 8.256 0 008.258-8.258V60.559h38.538v148.645H176.172zm148.645 77.076H297.29v-60.56h27.527v60.56z"/></symbol><symbol viewBox="0 0 30 50" id="right" xmlns="http://www.w3.org/2000/svg"><path d="M2.2 2.3C1 3.6 0 5 0 5.5s4.2 5.1 9.2 10.2l9.3 9.3-9.3 9.3C4.2 39.4 0 44 0 44.6 0 45.9 4.3 50 5.6 50 7.1 50 30 26.5 30 25 30 23.4 7.1 0 5.5 0c-.6 0-2.1 1-3.3 2.3z"/></symbol><symbol viewBox="0 -31 512 512" id="shopping-cart" xmlns="http://www.w3.org/2000/svg"><path d="M164.96 300.004h.024c.02 0 .04-.004.059-.004H437a15.003 15.003 0 0014.422-10.879l60-210a15.003 15.003 0 00-2.445-13.152A15.006 15.006 0 00497 60H130.367l-10.722-48.254A15.003 15.003 0 00105 0H15C6.715 0 0 6.715 0 15s6.715 15 15 15h77.969c1.898 8.55 51.312 230.918 54.156 243.71C131.184 280.64 120 296.536 120 315c0 24.812 20.188 45 45 45h272c8.285 0 15-6.715 15-15s-6.715-15-15-15H165c-8.27 0-15-6.73-15-15 0-8.258 6.707-14.977 14.96-14.996zM477.114 90l-51.43 180H177.032l-40-180zm0 0M150 405c0 24.813 20.188 45 45 45s45-20.188 45-45-20.188-45-45-45-45 20.188-45 45zm45-15c8.27 0 15 6.73 15 15s-6.73 15-15 15-15-6.73-15-15 6.73-15 15-15zm0 0M362 405c0 24.813 20.188 45 45 45s45-20.188 45-45-20.188-45-45-45-45 20.188-45 45zm45-15c8.27 0 15 6.73 15 15s-6.73 15-15 15-15-6.73-15-15 6.73-15 15-15zm0 0"/></symbol><symbol viewBox="0 0 512 512" id="timer" xmlns="http://www.w3.org/2000/svg"><path d="M276.193 58.507V40.389h14.578c11.153 0 20.194-9.042 20.194-20.194S301.923 0 290.771 0h-69.544c-11.153 0-20.194 9.042-20.194 20.194s9.042 20.194 20.194 20.194h14.578v18.118C119.952 68.76 28.799 166.327 28.799 284.799 28.799 410.078 130.721 512 256 512s227.201-101.922 227.201-227.201C483.2 166.327 392.046 68.76 276.193 58.507zm0 412.009v-20.124c0-11.153-9.042-20.194-20.194-20.194-11.153 0-20.194 9.042-20.194 20.194v20.124c-86.91-9.385-156.137-78.614-165.522-165.522h20.124c11.153 0 20.194-9.042 20.194-20.194s-9.042-20.194-20.194-20.194H70.282c9.385-86.91 78.614-156.137 165.522-165.523v20.124c0 11.153 9.042 20.194 20.194 20.194 11.153 0 20.194-9.042 20.194-20.194V99.081c86.91 9.385 156.137 78.614 165.522 165.523H421.59c-11.153 0-20.194 9.042-20.194 20.194s9.042 20.194 20.194 20.194h20.126c-9.385 86.911-78.613 156.14-165.523 165.524z"/><path d="M317.248 194.99l-58.179 58.18a32.121 32.121 0 00-3.071-.151c-17.552 0-31.779 14.229-31.779 31.779 0 17.552 14.228 31.779 31.779 31.779s31.779-14.229 31.779-31.779c0-1.037-.054-2.06-.151-3.07l58.178-58.18c7.887-7.885 7.887-20.672 0-28.559-7.882-7.886-20.669-7.886-28.556.001z"/></symbol></svg>